HIERARCHY
ROOT Hips
{
  OFFSET 0.000000 0.000000 0.000000
  CHANNELS 6 Xposition Yposition Zposition Xrotation Yrotation Zrotation
  JOINT Spine
  {
    OFFSET 0.000000 0.000000 0.000000
    CHANNELS 3 Xrotation Yrotation Zrotation
    JOINT Chest
    {
      OFFSET 0.000000 0.000000 0.000000
      CHANNELS 3 Xrotation Yrotation Zrotation
      JOINT Neck
      {
        OFFSET 0.000000 0.000000 0.000000
        CHANNELS 3 Xrotation Yrotation Zrotation
        JOINT Head
        {
          OFFSET 0.000000 0.000000 0.000000
          CHANNELS 3 Xrotation Yrotation Zrotation
          End Site
          {
            OFFSET 0.000000 -10.000000 0.000000
          }
        }
      }
      JOINT LeftShoulder
      {
        OFFSET 0.000000 0.000000 0.000000
        CHANNELS 3 Xrotation Yrotation Zrotation
        JOINT LeftArm
        {
          OFFSET 0.000000 0.000000 0.000000
          CHANNELS 3 Xrotation Yrotation Zrotation
          JOINT LeftForeArm
          {
            OFFSET 0.000000 0.000000 0.000000
            CHANNELS 3 Xrotation Yrotation Zrotation
            JOINT LeftHand
            {
              OFFSET 0.000000 0.000000 0.000000
              CHANNELS 3 Xrotation Yrotation Zrotation
              End Site
              {
                OFFSET 0.000000 -10.000000 0.000000
              }
            }
          }
        }
      }
      JOINT RightShoulder
      {
        OFFSET 0.000000 0.000000 0.000000
        CHANNELS 3 Xrotation Yrotation Zrotation
        JOINT RightArm
        {
          OFFSET 0.000000 0.000000 0.000000
          CHANNELS 3 Xrotation Yrotation Zrotation
          JOINT RightForeArm
          {
            OFFSET 0.000000 0.000000 0.000000
            CHANNELS 3 Xrotation Yrotation Zrotation
            JOINT RightHand
            {
              OFFSET 0.000000 0.000000 0.000000
              CHANNELS 3 Xrotation Yrotation Zrotation
              End Site
              {
                OFFSET 0.000000 -10.000000 0.000000
              }
            }
          }
        }
      }
    }
  }
  JOINT LeftUpLeg
  {
    OFFSET 0.000000 0.000000 0.000000
    CHANNELS 3 Xrotation Yrotation Zrotation
    JOINT LeftLeg
    {
      OFFSET 0.000000 0.000000 0.000000
      CHANNELS 3 Xrotation Yrotation Zrotation
      JOINT LeftFoot
      {
        OFFSET 0.000000 0.000000 0.000000
        CHANNELS 3 Xrotation Yrotation Zrotation
        JOINT LeftToeBase
        {
          OFFSET 0.000000 0.000000 0.000000
          CHANNELS 3 Xrotation Yrotation Zrotation
          End Site
          {
            OFFSET 0.000000 -10.000000 0.000000
          }
        }
      }
    }
  }
  JOINT RightUpLeg
  {
    OFFSET 0.000000 0.000000 0.000000
    CHANNELS 3 Xrotation Yrotation Zrotation
    JOINT RightLeg
    {
      OFFSET 0.000000 0.000000 0.000000
      CHANNELS 3 Xrotation Yrotation Zrotation
      JOINT RightFoot
      {
        OFFSET 0.000000 0.000000 0.000000
        CHANNELS 3 Xrotation Yrotation Zrotation
        JOINT RightToeBase
        {
          OFFSET 0.000000 0.000000 0.000000
          CHANNELS 3 Xrotation Yrotation Zrotation
          End Site
          {
            OFFSET 0.000000 -10.000000 0.000000
          }
        }
      }
    }
  }
}
MOTION
Frames: 10
Frame Time: 0.041667
2.098770 -6.761259 -0.016064 0.000000 0.000000 0.000000 106.197057 -0.410700 0.000000 0.000000 -0.000000 0.000000 145.803497 1.000421 0.000000 0.000000 -0.000000 0.000000 168.238552 -81.036544 0.000000 -71.699223 -10.312876 0.000000 -131.558654 1.675472 0.000000 -140.873289 9.982041 0.000000 -11.761448 81.036544 0.000000 -79.467264 7.740003 0.000000 -123.305781 2.514164 0.000000 -133.797723 -0.566316 0.000000 -58.821406 -83.135643 0.000000 -89.645991 0.507828 0.000000 -33.775365 0.368615 0.000000 -118.983293 1.538481 0.000000 121.178594 83.135643 0.000000 -96.310994 1.351158 0.000000 -62.077552 -2.798827 0.000000 -121.332816 2.564125 0.000000
2.041909 -7.530311 -0.015813 0.000000 0.000000 0.000000 104.678356 -0.466755 0.000000 0.000000 -0.000000 0.000000 146.719984 1.032610 0.000000 0.000000 -0.000000 0.000000 163.143610 -82.145551 0.000000 -77.254777 -11.225648 0.000000 -141.754001 1.924032 0.000000 -144.235475 11.374822 0.000000 -16.856390 82.145551 0.000000 -78.828518 7.848435 0.000000 -124.239001 2.897130 0.000000 -134.926005 -0.212266 0.000000 -65.758510 -81.238054 0.000000 -86.750084 0.640071 0.000000 -29.140563 0.223733 0.000000 -111.899537 0.997361 0.000000 114.241490 81.238054 0.000000 -99.945101 1.062684 0.000000 -64.423305 -2.054659 0.000000 -132.478709 2.570977 0.000000
1.929928 -8.387467 -0.014756 0.000000 0.000000 0.000000 100.218153 -0.586816 0.000000 0.000000 -0.000000 0.000000 147.778070 1.208059 0.000000 0.000000 -0.000000 0.000000 161.682583 -81.310916 0.000000 -85.757284 -12.195952 0.000000 -141.621115 2.412445 0.000000 -145.381658 13.384097 0.000000 -18.317417 81.310916 0.000000 -79.884278 7.695539 0.000000 -125.779769 3.101332 0.000000 -134.397790 -0.148273 0.000000 -71.515710 -82.964890 0.000000 -87.078057 0.581849 0.000000 -32.710406 0.151991 0.000000 -108.686581 -1.708035 0.000000 108.484290 82.964890 0.000000 -99.447560 0.604690 0.000000 -59.249984 -1.661184 0.000000 -122.678721 0.663045 0.000000
1.857951 -8.938697 -0.014040 0.000000 0.000000 0.000000 100.607367 -0.611818 0.000000 0.000000 -0.000000 0.000000 147.051267 1.274254 0.000000 0.000000 -0.000000 0.000000 132.334528 -85.720492 0.000000 -86.149113 -12.363274 0.000000 -144.314029 2.416246 0.000000 -146.086814 14.899876 0.000000 -47.665472 85.720492 0.000000 -81.780901 7.647044 0.000000 -125.318799 3.259898 0.000000 -132.895756 0.400575 0.000000 -37.694347 -81.601411 0.000000 -84.431662 0.558513 0.000000 -31.253072 0.141342 0.000000 -109.608037 -1.432079 0.000000 142.305653 81.601411 0.000000 -98.399554 0.282910 0.000000 -64.693350 -1.525699 0.000000 -135.809409 0.145362 0.000000
1.854232 -9.527192 -0.014181 0.000000 0.000000 0.000000 101.488419 -0.522946 0.000000 0.000000 -0.000000 0.000000 148.436174 1.181334 0.000000 0.000000 -0.000000 0.000000 88.400160 -87.096181 0.000000 -95.150708 -12.239878 0.000000 -148.407505 2.261181 0.000000 -147.577193 14.920374 0.000000 -91.599840 87.096181 0.000000 -80.961347 7.588420 0.000000 -123.873182 3.647532 0.000000 -133.878627 0.544217 0.000000 -20.818409 -80.937829 0.000000 -82.013895 0.536753 0.000000 -31.882937 0.175235 0.000000 -111.747524 -1.670501 0.000000 159.181591 80.937829 0.000000 -91.370922 0.216369 0.000000 -62.596765 -0.890163 0.000000 -135.397593 0.741979 0.000000
1.817791 -10.878456 -0.014167 0.000000 0.000000 0.000000 101.047707 -0.474219 0.000000 0.000000 -0.000000 0.000000 147.249009 1.358245 0.000000 0.000000 -0.000000 0.000000 111.526787 -87.095240 0.000000 -91.481642 -12.202175 0.000000 -147.814010 2.675420 0.000000 -146.763729 15.668596 0.000000 -68.473213 87.095240 0.000000 -81.846543 7.540627 0.000000 -125.286728 3.786773 0.000000 -133.286191 -0.133657 0.000000 -12.286269 -81.454176 0.000000 -87.666832 0.501149 0.000000 -42.579901 0.193583 0.000000 -127.526842 0.164511 0.000000 167.713731 81.454176 0.000000 -91.571640 0.023597 0.000000 -60.553809 -0.001530 0.000000 -137.021285 0.346434 0.000000
1.818956 -12.071878 -0.014223 0.000000 0.000000 0.000000 101.507239 -0.330318 0.000000 0.000000 -0.000000 0.000000 148.275709 1.568522 0.000000 0.000000 -0.000000 0.000000 101.189913 -87.210757 0.000000 -95.736774 -12.201459 0.000000 -152.697825 2.658789 0.000000 -147.602602 15.368988 0.000000 -78.810087 87.210757 0.000000 -80.991391 7.549752 0.000000 -129.852092 3.634244 0.000000 -134.472697 -0.419877 0.000000 -5.952541 -81.713754 0.000000 -88.167336 0.389253 0.000000 -37.531329 0.670274 0.000000 -116.542353 -0.826638 0.000000 174.047459 81.713754 0.000000 -85.423056 -0.134144 0.000000 -54.874824 0.353804 0.000000 -135.646248 0.347021 0.000000
1.813300 -12.991130 -0.014210 0.000000 0.000000 0.000000 103.170867 -0.167779 0.000000 0.000000 -0.000000 0.000000 147.945182 1.566551 0.000000 0.000000 -0.000000 0.000000 93.515095 -87.315799 0.000000 -93.427216 -12.285147 0.000000 -150.585946 3.043082 0.000000 -150.074741 16.669021 0.000000 -86.484905 87.315799 0.000000 -82.892227 7.714870 0.000000 -128.465761 3.744914 0.000000 -134.691407 -0.594224 0.000000 1.354394 -81.823930 0.000000 -87.881921 0.328460 0.000000 -35.936046 0.923492 0.000000 -112.630041 -0.956839 0.000000 -178.645606 81.823930 0.000000 -83.341501 -0.201503 0.000000 -55.460218 0.698887 0.000000 -135.560020 0.426590 0.000000
1.790665 -13.391989 -0.014041 0.000000 0.000000 0.000000 103.777032 -0.042428 0.000000 0.000000 -0.000000 0.000000 147.727754 1.616130 0.000000 0.000000 -0.000000 0.000000 34.642652 -86.296844 0.000000 -89.068048 -12.157892 0.000000 -147.931375 3.335927 0.000000 -148.823901 18.010157 0.000000 -145.357348 86.296844 0.000000 -81.190934 7.639724 0.000000 -127.106217 3.695659 0.000000 -132.565532 -0.903582 0.000000 -3.082337 -74.589280 0.000000 -87.782807 0.152289 0.000000 -43.107885 0.143660 0.000000 -126.091952 0.262599 0.000000 176.917663 74.589280 0.000000 -90.889552 -0.338225 0.000000 -61.308985 0.697677 0.000000 -139.213516 -1.675529 0.000000
1.707317 -14.041469 -0.014040 0.000000 0.000000 0.000000 106.410793 -0.044692 0.000000 0.000000 -0.000000 0.000000 148.138948 1.693314 0.000000 0.000000 -0.000000 0.000000 22.113367 -84.861802 0.000000 -82.370019 -12.161910 0.000000 -144.321464 3.623086 0.000000 -143.847297 16.828592 0.000000 -157.886633 84.861802 0.000000 -79.992829 7.508558 0.000000 -126.589541 3.690362 0.000000 -132.703167 -0.869525 0.000000 0.630761 -74.435144 0.000000 -83.904297 0.055452 0.000000 -43.471095 -0.219844 0.000000 -131.962053 0.586129 0.000000 -179.369239 74.435144 0.000000 -79.735976 -0.659366 0.000000 -55.628253 0.900321 0.000000 -137.898210 -1.880779 0.000000
